<svg width="192" height="69" viewBox="0 0 192 69" fill="none" xmlns="http://www.w3.org/2000/svg">
<path d="M168.653 34.2234V13.2114H160.89V40.1121H177.653V34.2234H168.653Z" fill="#00BCF0"/>
<path d="M140.949 40.1121H157.845V34.2234H148.611V29.5391H157.243V23.7844H148.611V19.1004H157.845V13.2114H140.949V40.1121Z" fill="#00BCF0"/>
<path d="M124.955 19.1004H127.13C128.904 19.1004 130.108 19.7695 130.108 21.5091C130.108 23.4164 128.669 24.1526 126.996 24.1526H124.955V19.1004ZM124.955 34.2234V29.1042H127.565C129.372 29.1042 130.81 29.7062 130.81 31.58C130.81 32.9856 129.874 34.2234 127.431 34.2234H124.955ZM132.651 25.7584C135.896 24.4871 137.101 22.4795 137.101 19.6022C137.101 15.1186 134.19 13.2114 128.1 13.2114H117.293V40.1123H127.665C134.323 40.1123 138.874 38.005 138.874 32.7852C138.874 28.7362 136.666 26.026 132.651 25.7584Z" fill="#00BCF0"/>
<path d="M117.694 40.1121L109.129 13.2114L105.549 24.1524L107.255 30.4427H103.542L101.868 35.7625H108.693L109.865 40.1121H117.694Z" fill="#00BCF0"/>
<path d="M77.9787 25.2231V19.1004H80.5887C82.7298 19.1004 83.8674 20.0704 83.8674 22.0108C83.8674 24.1191 82.4289 25.2231 80.2876 25.2231H77.9787ZM85.9085 28.8036C89.4885 27.6991 91.3623 24.9891 91.3623 21.0075C91.3623 15.9217 87.9496 13.2114 81.6591 13.2114H70.2497V40.1123H77.9787V29.9747H78.7485L83.7674 40.1123H92.6341L85.9085 28.8036Z" fill="#00BCF0"/>
<path d="M50.6093 40.1121H58.3384V29.9745H66.8705V24.2191H58.3384V19.1004H67.4723V13.2114H50.6093V40.1121Z" fill="#00BCF0"/>
<path d="M39.5678 13.2114V26.5611L39.3669 26.5949L32.8089 13.2114H24.5112V40.1121H32.2404V26.528L32.4075 26.4611L38.9987 40.1121H47.297V13.2114H39.5678Z" fill="#00BCF0"/>
<path d="M21.199 13.2114H13.4698V40.1123H21.199V13.2114Z" fill="#00BCF0"/>
<path d="M105.549 13.2114L96.8831 40.1121H100.463L109.129 13.2114H105.549Z" fill="#005DA4"/>
<path d="M98.0206 13.2114L89.3545 40.1121H92.9683L101.601 13.2114H98.0206Z" fill="#005DA4"/>
</svg>
