<svg role="presentation" viewBox="0 0 141 25" version="1.1" xmlns="http://www.w3.org/2000/svg" xmlns:xlink="http://www.w3.org/1999/xlink"><g stroke="none" stroke-width="1" fill="none" fill-rule="evenodd"><g transform="translate(-146.000000, -48.000000)"><g><g transform="translate(146.000000, 48.000000)"><g><polygon fill="#02BCF0" points="126.604155 0.690603448 126.604155 24.1380172 140.999745 24.1380172 140.999745 19.0043966 133.269378 19.0043966 133.269378 0.690603448"/><polygon fill="#02BCF0" points="109.478006 0.690603448 109.478006 24.1380172 123.989964 24.1380172 123.989964 19.0043966 116.058289 19.0043966 116.058289 14.9225 123.472681 14.9225 123.472681 9.90612069 116.058289 9.90612069 116.058289 5.8225 123.989964 5.8225 123.989964 0.690603448"/><path d="M95.7435867,5.82362069 L97.6105627,5.82362069 C99.1326831,5.82362069 100.168099,6.40637931 100.168099,7.92275862 C100.168099,9.58482759 98.9330747,10.227069 97.495894,10.227069 L95.7435867,10.227069 L95.7435867,5.82362069 Z M95.7435867,19.0055172 L95.7435867,14.5434483 L97.9842976,14.5434483 C99.536147,14.5434483 100.77287,15.0675862 100.77287,16.7012069 C100.77287,17.927069 99.9684904,19.0055172 97.8687795,19.0055172 L95.7435867,19.0055172 Z M102.3519,11.6262069 C105.140472,10.5184483 106.17334,8.76931034 106.17334,6.26068966 C106.17334,2.35293103 103.672713,0.690862069 98.4438217,0.690862069 L89.1633036,0.690862069 L89.1633036,24.1382759 L98.0709361,24.1382759 C103.789081,24.1382759 107.69631,22.3003448 107.69631,17.7503448 C107.69631,14.2218966 105.800454,11.8589655 102.3519,11.6262069 Z" fill="#02BCF0"/><polygon fill="#02BCF0" points="89.5074795 24.137931 82.1516964 0.690517241 79.0760277 10.2267241 80.5412386 15.7103448 77.3526 15.7103448 75.9171181 20.3465517 81.777112 20.3465517 82.7836482 24.137931"/><path d="M55.3997494,11.1597414 L55.3997494,5.82353448 L57.6413096,5.82353448 C59.4802554,5.82353448 60.4570627,6.66922414 60.4570627,8.35974138 C60.4570627,10.1976724 59.2220386,11.1597414 57.3822434,11.1597414 L55.3997494,11.1597414 Z M62.2093699,14.280431 C65.2841892,13.3175 66.8937976,10.955431 66.8937976,7.48560345 C66.8937976,3.05284483 63.9625265,0.690775862 58.5603578,0.690775862 L48.7625566,0.690775862 L48.7625566,24.1381897 L55.3997494,24.1381897 L55.3997494,15.3019828 L56.0605807,15.3019828 L60.3712735,24.1381897 L67.9861229,24.1381897 L62.2093699,14.280431 Z" fill="#02BCF0"/><polygon fill="#02BCF0" points="31.8953042 24.137931 38.532497 24.137931 38.532497 15.3017241 45.8594006 15.3017241 45.8594006 10.2853448 38.532497 10.2853448 38.532497 5.82327586 46.3766837 5.82327586 46.3766837 0.690517241 31.8953042 0.690517241"/><polygon fill="#02BCF0" points="22.4125446 0.690344828 22.4125446 12.3265517 22.2401169 12.3558621 16.6077614 0.690344828 9.48131566 0.690344828 9.48131566 24.1377586 16.1193578 24.1377586 16.1193578 12.2972414 16.2637554 12.2394828 21.924141 24.1377586 29.0497373 24.1377586 29.0497373 0.690344828"/><polygon fill="#02BCF0" points="0 24.137931 6.63719277 24.137931 6.63719277 0.690517241 0 0.690517241"/><polygon fill="#025DA4" points="79.0767072 0.690344828 71.6351349 24.1377586 74.7099542 24.1377586 82.1515265 0.690344828"/><polygon fill="#025DA4" points="72.582638 0.690344828 65.1699452 24.1377586 68.2727946 24.1377586 75.6871861 0.690344828"/></g></g></g></g></g></svg>